<?xml version="1.0" encoding="utf-8"?>
<svg width="130px" height="22px" viewBox="0 0 130 22" version="1.1" xmlns:xlink="http://www.w3.org/1999/xlink" xmlns="http://www.w3.org/2000/svg">
  <g id="----">
    <g id="--" fill="#464646">
      <path d="M1.58523 21.6364L1.58523 18.3636L16.3125 18.3636L16.3125 21.6364L1.58523 21.6364ZM1.58523 17.1364L1.58523 13.8636L16.3125 13.8636L16.3125 17.1364L1.58523 17.1364ZM1.58523 12.6364L1.58523 9.36364L16.3125 9.36364L16.3125 12.6364L1.58523 12.6364ZM1.58523 8.13636L1.58523 4.86364L16.3125 4.86364L16.3125 8.13636L1.58523 8.13636ZM1.58523 3.63636L1.58523 0.363634L16.3125 0.363634L16.3125 3.63636L1.58523 3.63636Z" />
    </g>
    <g id="" fill="#FE50A6">
      <path d="M29.608 21.6364L29.608 18.3636L44.3352 18.3636L44.3352 21.6364L29.608 21.6364ZM29.608 17.1364L29.608 13.8636L44.3352 13.8636L44.3352 17.1364L29.608 17.1364ZM29.608 12.6364L29.608 9.36364L44.3352 9.36364L44.3352 12.6364L29.608 12.6364ZM29.608 8.13636L29.608 4.86364L44.3352 4.86364L44.3352 8.13636L29.608 8.13636ZM29.608 3.63636L29.608 0.363634L44.3352 0.363634L44.3352 3.63636L29.608 3.63636Z" />
    </g>
    <g id="------" fill="#464646">
      <path d="M57.6307 3.63636L57.6307 0.363634L72.358 0.363634L72.358 3.63636L57.6307 3.63636ZM85.6534 3.63636L85.6534 0.363634L100.381 0.363634L100.381 3.63636L85.6534 3.63636ZM113.676 0.363634L113.676 3.63636L128.403 3.63636L128.403 0.363634L113.676 0.363634ZM57.6307 8.13636L57.6307 4.86364L72.358 4.86364L72.358 8.13636L57.6307 8.13636ZM85.6534 8.13636L85.6534 4.86364L100.381 4.86364L100.381 8.13636L85.6534 8.13636ZM113.676 4.86364L113.676 8.13636L128.403 8.13636L128.403 4.86364L113.676 4.86364ZM57.6307 12.6364L57.6307 9.36364L72.358 9.36364L72.358 12.6364L57.6307 12.6364ZM85.6534 12.6364L85.6534 9.36364L100.381 9.36364L100.381 12.6364L85.6534 12.6364ZM113.676 9.36364L113.676 12.6364L128.403 12.6364L128.403 9.36364L113.676 9.36364ZM57.6307 17.1364L57.6307 13.8636L72.358 13.8636L72.358 17.1364L57.6307 17.1364ZM85.6534 17.1364L85.6534 13.8636L100.381 13.8636L100.381 17.1364L85.6534 17.1364ZM113.676 13.8636L113.676 17.1364L128.403 17.1364L128.403 13.8636L113.676 13.8636ZM57.6307 21.6364L57.6307 18.3636L72.358 18.3636L72.358 21.6364L57.6307 21.6364ZM85.6534 21.6364L85.6534 18.3636L100.381 18.3636L100.381 21.6364L85.6534 21.6364ZM113.676 18.3636L113.676 21.6364L128.403 21.6364L128.403 18.3636L113.676 18.3636Z" />
    </g>
  </g>
</svg>